<svg xmlns="http://www.w3.org/2000/svg" xmlns:xlink="http://www.w3.org/1999/xlink" viewBox="0 0 180.26 89.29"><defs><style>.cls-1{fill:url(#Degradado_sin_nombre_60);}.cls-2{fill:url(#Degradado_sin_nombre_22);}.cls-3{fill:#2e5b9f;}.cls-4{fill:#a1007d;}.cls-5{fill:url(#Degradado_sin_nombre_28);}.cls-6{opacity:0.4;}.cls-7{fill:#fff;}.cls-8{fill:#9d1d64;}.cls-9{opacity:0.35;}.cls-10{fill:#312825;}</style><linearGradient id="Degradado_sin_nombre_60" x1="-4.97" y1="103.59" x2="58.94" y2="103.59" gradientTransform="matrix(1.01, 0.05, -0.05, 1.01, 9.99, -72.17)" gradientUnits="userSpaceOnUse"><stop offset="0" stop-color="#30539c"/><stop offset="0.25" stop-color="#4588c0"/><stop offset="0.57" stop-color="#7bb9da"/><stop offset="1" stop-color="#87c5c5"/></linearGradient><linearGradient id="Degradado_sin_nombre_22" x1="66.83" y1="11.33" x2="112.59" y2="55.93" gradientUnits="userSpaceOnUse"><stop offset="0" stop-color="#5a246d"/><stop offset="0.52" stop-color="#5c2470"/><stop offset="0.91" stop-color="#632579"/><stop offset="1" stop-color="#66257d"/></linearGradient><linearGradient id="Degradado_sin_nombre_28" x1="126.69" y1="33.49" x2="180.26" y2="33.49" gradientUnits="userSpaceOnUse"><stop offset="0" stop-color="#a21836"/><stop offset="0" stop-color="#e5005d"/><stop offset="1" stop-color="#a51837"/></linearGradient></defs><g id="Capa_2" data-name="Capa 2"><g id="Capa_1-2" data-name="Capa 1"><path class="cls-1" d="M33.35,66.91C14.53,66-.89,51.52,0,32S17.58-.49,35.52.36c14.49.69,23.08,7,28.31,15.31L49.91,23.9c-2.38-3.94-6.34-8-14.81-8.45C25.24,15,18.86,22.62,18.37,32.83s5.35,18.52,15.6,19c8.67.41,13.09-3.2,16.19-8.22l13.39,9.24C56.44,63.32,47,67.56,33.35,66.91Z"/><path class="cls-2" d="M88.24,67H69.78V.29H96c18.56,0,29,11.38,29,26.2S114.51,52.58,96,52.58H88.24ZM95,37.47c8.31,0,11.36-4.51,11.36-11S103.35,15.4,95,15.4h-6.8V37.47Z"/><path class="cls-3" d="M44.92,9.89a40,40,0,0,1,18.89,5.74C58.57,7.36,50,1.05,35.52.36,17.58-.49,1,12.4,0,32A32.49,32.49,0,0,0,3.93,49.19c0-1.06-.06-2.13,0-3.2C4.91,25,23.27,8.86,44.92,9.89Z"/><path class="cls-4" d="M88.24,15.4H95c.58,0,1.08.07,1.62.12l7.23-14.43A39.62,39.62,0,0,0,96,.29H69.78V67h1.07L88.24,32.32Z"/><path class="cls-5" d="M126.69,54.89l13.09-9.5c3.28,3.93,7.34,7.1,14.09,7.1,5.36,0,8.53-1.54,8.53-5.18,0-2.79-2.18-4.13-6.65-5.57l-7.93-2.59C138,36,131.05,30.23,131.05,19.48c0-12.86,11-19.48,23-19.48s18.45,4.13,22.42,8.64L166.17,19.1a14.17,14.17,0,0,0-11.11-4.71c-4.37,0-6.55,1.92-6.55,4.51s1.49,3.75,4.76,4.8l8.93,2.88c13.49,4.32,18.06,10.55,18.06,19.77,0,12-7.74,20.63-25.6,20.63C139.48,67,130.85,60.26,126.69,54.89Z"/><g class="cls-6"><path class="cls-7" d="M180.26,46.35c0-8.06-3.49-13.84-13.38-18a53.87,53.87,0,0,1-1.39,37.32C175.68,62.76,180.26,55.55,180.26,46.35Z"/></g><path class="cls-8" d="M146.79.77c-8.9,2.14-15.88,8.4-15.88,18.64s6.43,16.05,15.67,19.29A53.94,53.94,0,0,1,146.79.77Z"/><g class="cls-9"><polygon class="cls-7" points="69.78 67.01 88.24 67.01 69.78 0.29 69.78 67.01"/></g><g class="cls-9"><path class="cls-7" d="M5.26,17.63c0-.84.15-1.65.25-2.46A32.66,32.66,0,0,0,0,32C-.89,51.52,14.53,66,33.35,66.91c13.6.65,23.09-3.59,30.2-14.06l-.12-.08a40,40,0,0,1-20.76,4.67C21,56.41,4.27,38.59,5.26,17.63Z"/></g><path class="cls-10" d="M66.8,89.24l.2-7.68-2.19,7.68H62.67l-2.18-7.68.19,7.68h-2.4V79.7h3.6l1.86,6.68,1.83-6.68h3.61v9.54Z"/><path class="cls-10" d="M75.27,89.24V79.7h7.29v1.84H77.73v1.74h4.51v1.81H77.73v2.27H83v1.88Z"/><path class="cls-10" d="M96.34,87.85a4.34,4.34,0,0,1-2.25,1.24,6.94,6.94,0,0,1-1.58.15H88.64V79.7h4a5.84,5.84,0,0,1,3.27,1,3.18,3.18,0,0,1,.78.87,4.78,4.78,0,0,1,.74,2.78A5,5,0,0,1,96.34,87.85Zm-1.9-5.35a2,2,0,0,0-1-.65,4.15,4.15,0,0,0-1.36-.14h-1v5.61h.75a3.74,3.74,0,0,0,2.21-.5A2.68,2.68,0,0,0,95,84.47,2.88,2.88,0,0,0,94.44,82.5Z"/><path class="cls-10" d="M103.44,89.24V79.7h2.46v9.54Z"/><path class="cls-10" d="M119.35,89.29l-.49-1.53h-3.63l-.49,1.53h-2.63l3.66-9.54h2.58L122,89.29ZM117,82l-1.22,4h2.5Z"/></g></g></svg>