<svg xmlns="http://www.w3.org/2000/svg" viewBox="0 0 150 74.3"><defs><style>.cls-1{opacity:0.72;}.cls-2{fill:#fff;}.cls-3{opacity:0.65;}</style></defs><g id="Capa_2" data-name="Capa 2"><g id="Capa_1-2" data-name="Capa 1"><g class="cls-1"><path class="cls-2" d="M27.75,55.68C12.09,54.94-.74,42.87,0,26.59S14.63-.41,29.56.3C41.61.87,48.76,6.14,53.12,13L41.53,19.89c-2-3.28-5.27-6.7-12.32-7-8.2-.39-13.52,6-13.92,14.46s4.45,15.41,13,15.81c7.21.34,10.89-2.67,13.47-6.84L52.88,44C47,52.69,39.07,56.22,27.75,55.68Z"/></g><g class="cls-1"><path class="cls-2" d="M73.43,55.76H58.07V.24H79.84C95.29.24,104,9.71,104,22S95.29,43.76,79.84,43.76H73.43Zm5.65-24.58c6.92,0,9.46-3.75,9.46-9.14S86,12.81,79.08,12.81H73.43V31.18Z"/></g><path class="cls-2" d="M37.38,8.23A33.36,33.36,0,0,1,53.1,13C48.74,6.13,41.59.87,29.56.3,14.63-.41.8,10.32,0,26.59A27.06,27.06,0,0,0,3.27,40.93c0-.88,0-1.77,0-2.66C4.09,20.82,19.36,7.37,37.38,8.23Z"/><path class="cls-2" d="M73.43,12.81h5.65c.49,0,.91.07,1.35.1l6-12A32.67,32.67,0,0,0,79.84.24H58.07V55.76H59L73.43,26.89Z"/><g class="cls-1"><path class="cls-2" d="M105.42,45.67l10.9-7.9C119,41,122.43,43.68,128,43.68c4.46,0,7.1-1.28,7.1-4.31,0-2.32-1.82-3.44-5.53-4.64L123,32.58c-8.17-2.64-14-7.43-14-16.37C109.05,5.51,118.22,0,128.21,0s15.35,3.43,18.65,7.19l-8.58,8.7A11.81,11.81,0,0,0,129,12c-3.63,0-5.45,1.59-5.45,3.75s1.24,3.11,4,4l7.43,2.4c11.22,3.59,15,8.78,15,16.45,0,10-6.44,17.16-21.3,17.16C116.07,55.73,108.89,50.14,105.42,45.67Z"/></g><g class="cls-3"><path class="cls-2" d="M150,38.57c0-6.7-2.9-11.51-11.13-15a45,45,0,0,1-1.16,31.06C146.19,52.22,150,46.23,150,38.57Z"/></g><path class="cls-2" d="M122.15.64c-7.41,1.78-13.21,7-13.21,15.51s5.35,13.36,13,16.05A45,45,0,0,1,122.15.64Z"/><g class="cls-3"><polygon class="cls-2" points="58.07 55.76 73.43 55.76 58.07 0.24 58.07 55.76"/></g><g class="cls-3"><path class="cls-2" d="M4.38,14.67c0-.69.13-1.37.2-2.05A27.29,27.29,0,0,0,0,26.59C-.74,42.87,12.09,54.94,27.75,55.68c11.32.54,19.21-3,25.13-11.7l-.1-.07A33.22,33.22,0,0,1,35.51,47.8C17.49,46.94,3.55,32.11,4.38,14.67Z"/></g><path class="cls-2" d="M55.59,74.26l.16-6.39-1.82,6.39H52.15l-1.82-6.39.17,6.39h-2V66.32h3L53,71.88l1.53-5.56h3v7.94Z"/><path class="cls-2" d="M62.63,74.26V66.32H68.7v1.53h-4V69.3h3.76v1.51H64.68V72.7h4.4v1.56Z"/><path class="cls-2" d="M80.17,73.1a3.59,3.59,0,0,1-1.87,1,5.85,5.85,0,0,1-1.32.12H73.76V66.32h3.36a4.9,4.9,0,0,1,2.72.86,2.51,2.51,0,0,1,.66.72,4,4,0,0,1,.61,2.31A4.16,4.16,0,0,1,80.17,73.1Zm-1.58-4.45a1.63,1.63,0,0,0-.8-.54A3.62,3.62,0,0,0,76.66,68h-.83v4.66h.63a3.16,3.16,0,0,0,1.84-.41,2.24,2.24,0,0,0,.75-2A2.43,2.43,0,0,0,78.59,68.65Z"/><path class="cls-2" d="M86.08,74.26V66.32h2v7.94Z"/><path class="cls-2" d="M99.32,74.3,98.91,73h-3l-.41,1.27H93.29l3-7.94h2.14l3,7.94Zm-1.94-6-1,3.35h2.09Z"/></g></g></svg>