<svg xmlns="http://www.w3.org/2000/svg" width="29.58" height="32.866" viewBox="0 0 29.58 32.866">
  <g id="Grupo_19" data-name="Grupo 19" transform="translate(-3 -2)">
    <path id="Trazado_268" data-name="Trazado 268" d="M7,11H9.934v4.607H7Zm0,9.214H9.934V24.82H7ZM12.868,11H15.8v4.607H12.868Zm0,9.214H15.8V24.82H12.868ZM18.737,11h2.934v4.607H18.737Zm0,9.214h2.934V24.82H18.737Z" transform="translate(3.454 3.244)" fill="#243a85"/>
    <path id="Trazado_269" data-name="Trazado 269" d="M6.287,34.866H29.293A3.29,3.29,0,0,0,32.58,31.58V8.573a3.29,3.29,0,0,0-3.287-3.287H26.006V2H22.72V5.287H12.86V2H9.573V5.287H6.287A3.29,3.29,0,0,0,3,8.573V31.58A3.29,3.29,0,0,0,6.287,34.866ZM29.293,11.86l0,19.72H6.287V11.86Z" transform="translate(0 0)" fill="#243a85"/>
  </g>
</svg>
