<svg xmlns="http://www.w3.org/2000/svg" width="12.382" height="12.379" viewBox="0 0 12.382 12.379">
  <path id="Trazado_233" data-name="Trazado 233" d="M6.117,34.841a3.174,3.174,0,1,0,3.174,3.174A3.169,3.169,0,0,0,6.117,34.841Zm0,5.237a2.063,2.063,0,1,1,2.063-2.063,2.067,2.067,0,0,1-2.063,2.063Zm4.044-5.367a.74.74,0,1,1-.74-.74A.739.739,0,0,1,10.161,34.711Zm2.1.751a3.664,3.664,0,0,0-1-2.594,3.688,3.688,0,0,0-2.594-1c-1.022-.058-4.085-.058-5.107,0a3.682,3.682,0,0,0-2.594,1,3.676,3.676,0,0,0-1,2.594c-.058,1.022-.058,4.085,0,5.107a3.664,3.664,0,0,0,1,2.594,3.692,3.692,0,0,0,2.594,1c1.022.058,4.085.058,5.107,0a3.664,3.664,0,0,0,2.594-1,3.688,3.688,0,0,0,1-2.594C12.322,39.545,12.322,36.484,12.263,35.462Zm-1.32,6.2A2.089,2.089,0,0,1,9.766,42.84a13.643,13.643,0,0,1-3.649.249,13.749,13.749,0,0,1-3.649-.249,2.089,2.089,0,0,1-1.177-1.177,13.643,13.643,0,0,1-.249-3.649,13.749,13.749,0,0,1,.249-3.649,2.089,2.089,0,0,1,1.177-1.177,13.643,13.643,0,0,1,3.649-.249,13.749,13.749,0,0,1,3.649.249,2.089,2.089,0,0,1,1.177,1.177,13.643,13.643,0,0,1,.249,3.649A13.635,13.635,0,0,1,10.943,41.664Z" transform="translate(0.075 -31.825)" fill="#fff"/>
</svg>