<svg xmlns="http://www.w3.org/2000/svg" width="15.608" height="15.604" viewBox="0 0 15.608 15.604">
  <path id="instagram-brands" d="M7.731,35.626a4,4,0,1,0,4,4A3.994,3.994,0,0,0,7.731,35.626Zm0,6.6a2.6,2.6,0,1,1,2.6-2.6,2.606,2.606,0,0,1-2.6,2.6Zm5.1-6.765a.933.933,0,1,1-.933-.933A.931.931,0,0,1,12.828,35.463Zm2.65.947a4.618,4.618,0,0,0-1.26-3.27,4.648,4.648,0,0,0-3.27-1.26c-1.288-.073-5.15-.073-6.438,0a4.642,4.642,0,0,0-3.27,1.257,4.633,4.633,0,0,0-1.26,3.27c-.073,1.288-.073,5.15,0,6.438a4.618,4.618,0,0,0,1.26,3.27,4.654,4.654,0,0,0,3.27,1.26c1.288.073,5.15.073,6.438,0a4.618,4.618,0,0,0,3.27-1.26,4.648,4.648,0,0,0,1.26-3.27C15.551,41.556,15.551,37.7,15.478,36.41Zm-1.664,7.817A2.633,2.633,0,0,1,12.33,45.71a17.2,17.2,0,0,1-4.6.313,17.331,17.331,0,0,1-4.6-.313,2.633,2.633,0,0,1-1.483-1.483,17.2,17.2,0,0,1-.313-4.6,17.331,17.331,0,0,1,.313-4.6,2.633,2.633,0,0,1,1.483-1.483,17.2,17.2,0,0,1,4.6-.313,17.331,17.331,0,0,1,4.6.313,2.633,2.633,0,0,1,1.483,1.483,17.2,17.2,0,0,1,.313,4.6A17.187,17.187,0,0,1,13.814,44.227Z" transform="translate(0.075 -31.825)" fill="#fff"/>
</svg>