<svg xmlns="http://www.w3.org/2000/svg" width="11.007" height="14.303" viewBox="0 0 11.007 14.303">
  <path id="bxl-pinterest-alt" d="M5.077,8.133A4.767,4.767,0,0,1,5.4,6.385a4.475,4.475,0,0,1,.891-1.432A6.052,6.052,0,0,1,7.6,3.9a5.972,5.972,0,0,1,1.591-.671A6.812,6.812,0,0,1,10.924,3a5.686,5.686,0,0,1,2.529.573,4.786,4.786,0,0,1,1.9,1.664,4.326,4.326,0,0,1,.73,2.467,7.834,7.834,0,0,1-.165,1.614,6.581,6.581,0,0,1-.513,1.521,5.25,5.25,0,0,1-.86,1.285,3.754,3.754,0,0,1-1.246.885,3.944,3.944,0,0,1-1.625.331,2.664,2.664,0,0,1-1.16-.275,1.711,1.711,0,0,1-.823-.756c-.058.223-.138.546-.243.968s-.17.693-.2.816-.091.327-.176.61a4.119,4.119,0,0,1-.223.611l-.273.536a6.342,6.342,0,0,1-.4.666c-.144.208-.322.457-.534.743l-.118.042-.079-.086Q7.32,15.868,7.318,15.6a9.66,9.66,0,0,1,.187-1.775q.182-.984.572-2.471T8.523,9.61a3.312,3.312,0,0,1-.274-1.452A2.273,2.273,0,0,1,8.7,6.816,1.346,1.346,0,0,1,9.83,6.189a1.006,1.006,0,0,1,.817.349,1.317,1.317,0,0,1,.291.881,5.423,5.423,0,0,1-.378,1.642,5.409,5.409,0,0,0-.378,1.607,1.168,1.168,0,0,0,.386.9,1.335,1.335,0,0,0,.937.357,1.841,1.841,0,0,0,.877-.215,1.955,1.955,0,0,0,.675-.583,4.867,4.867,0,0,0,.808-1.768,9.547,9.547,0,0,0,.172-.954,6.657,6.657,0,0,0,.056-.856,2.933,2.933,0,0,0-.94-2.317A3.579,3.579,0,0,0,10.7,4.4a3.962,3.962,0,0,0-2.87,1.114A3.759,3.759,0,0,0,6.674,8.34a2.472,2.472,0,0,0,.11.73,2.5,2.5,0,0,0,.231.56c.083.136.161.269.231.391a.653.653,0,0,1,.109.262,2.115,2.115,0,0,1-.127.628c-.088.258-.192.387-.318.387a1.38,1.38,0,0,1-.147-.027,1.757,1.757,0,0,1-.778-.481,2.52,2.52,0,0,1-.524-.812,5.553,5.553,0,0,1-.28-.929,3.882,3.882,0,0,1-.1-.916Z" transform="translate(-5.077 -3.002)" fill="#243a85"/>
</svg>
