<svg xmlns="http://www.w3.org/2000/svg" width="9.524" height="12.378" viewBox="0 0 9.524 12.378">
  <path id="pinterest-p-brands" d="M5.059,6.5C2.515,6.5,0,8.2,0,10.942c0,1.746.982,2.738,1.577,2.738.246,0,.387-.685.387-.878,0-.231-.588-.722-.588-1.682A3.352,3.352,0,0,1,4.858,7.713,2.649,2.649,0,0,1,7.8,10.436c0,1.317-.528,3.787-2.24,3.787a1.1,1.1,0,0,1-1.146-1.086c0-.937.655-1.845.655-2.812,0-1.642-2.329-1.344-2.329.64a2.914,2.914,0,0,0,.238,1.257,27.148,27.148,0,0,0-1.042,5.186c0,.469.067.93.112,1.4.084.094.042.084.171.037,1.25-1.711,1.205-2.046,1.771-4.286a2.012,2.012,0,0,0,1.719.893c2.634,0,3.817-2.567,3.817-4.881A4.22,4.22,0,0,0,5.059,6.5Z" transform="translate(0 -6.5)" fill="#fff"/>
</svg>