<svg xmlns="http://www.w3.org/2000/svg" viewBox="0 0 94.75 18.52"><defs><style>.cls-1{fill:#fff;}</style></defs><g id="Capa_2" data-name="Capa 2"><g id="Capa_1-2" data-name="Capa 1"><path class="cls-1" d="M21.35,13.36V5.16h2.34a10.22,10.22,0,0,1,1.91.12,2.64,2.64,0,0,1,.93.42,2.19,2.19,0,0,1,.68.86,2.72,2.72,0,0,1,.24,1.15A2.39,2.39,0,0,1,27,9.26a2.24,2.24,0,0,1-1.36.79l2.24,3.31H25.33l-1.88-3.21v3.21ZM23.45,9h.41a1.87,1.87,0,0,0,1.06-.24A.91.91,0,0,0,25.25,8a1.06,1.06,0,0,0-.31-.87,1.61,1.61,0,0,0-1-.26h-.45Z"/><path class="cls-1" d="M27.74,13.36l2.83-8.2h2.8l2.84,8.2H34l-.41-1.47H30.39L30,13.36Zm3.14-3.07H33.1l-.83-2.7a3.29,3.29,0,0,1-.11-.4c0-.18-.1-.42-.18-.71,0,.21-.09.4-.14.58s-.09.36-.14.53Z"/><path class="cls-1" d="M37,13.36V5.16H38.7a13.75,13.75,0,0,1,2.7.18,3.93,3.93,0,0,1,1.4.6A3.46,3.46,0,0,1,44,7.33a4.41,4.41,0,0,1,.4,1.93A4.46,4.46,0,0,1,44,11.2a3.52,3.52,0,0,1-1.18,1.39,3.88,3.88,0,0,1-1.36.59,11.19,11.19,0,0,1-2.36.18H37Zm2.22-1.84h.37A2.82,2.82,0,0,0,41.5,11a2.17,2.17,0,0,0,.61-1.72,2.18,2.18,0,0,0-.61-1.72A2.77,2.77,0,0,0,39.58,7h-.37Z"/><rect class="cls-1" x="45.84" y="5.16" width="2.26" height="8.2"/><path class="cls-1" d="M48.94,13.36l2.83-8.2h2.8l2.83,8.2H55.18l-.42-1.47H51.59l-.43,1.47Zm3.13-3.07h2.22l-.83-2.7c0-.08-.06-.22-.11-.4s-.1-.42-.17-.71c0,.21-.1.4-.14.58s-.1.36-.15.53Z"/><path class="cls-1" d="M58.19,13.36V5.16h2.15l3.1,4.22a4.91,4.91,0,0,1,.3.51l.45.93c0-.34-.08-.64-.1-.91s0-.5,0-.7V5.16H66.2v8.2H64.06L61,9.12c-.06-.08-.16-.26-.3-.51s-.29-.57-.44-.92c0,.34.07.65.09.91s0,.5,0,.71v4Z"/><polygon class="cls-1" points="69.14 13.36 69.14 7.09 67.31 7.09 67.31 5.16 73.22 5.16 73.22 7.09 71.38 7.09 71.38 13.36 69.14 13.36"/><polygon class="cls-1" points="74.31 13.36 74.31 5.16 79.33 5.16 79.33 6.96 76.49 6.96 76.49 8.38 79.17 8.38 79.17 10.14 76.49 10.14 76.49 11.52 79.33 11.52 79.33 13.36 74.31 13.36"/><polygon class="cls-1" points="80.96 13.36 80.96 5.16 85.02 5.16 85.02 5.86 81.7 5.86 81.7 8.42 84.9 8.42 84.9 9.12 81.7 9.12 81.7 13.36 80.96 13.36"/><polygon class="cls-1" points="90.45 13.69 87.57 7.11 86.95 13.37 86.18 13.37 87.3 4.82 90.44 12.12 93.7 4.82 94.75 13.37 93.99 13.37 93.38 7.11 90.45 13.69"/><path class="cls-1" d="M21.35,13.36V5.16h2.34a10.22,10.22,0,0,1,1.91.12,2.64,2.64,0,0,1,.93.42,2.19,2.19,0,0,1,.68.86,2.72,2.72,0,0,1,.24,1.15A2.39,2.39,0,0,1,27,9.26a2.24,2.24,0,0,1-1.36.79l2.24,3.31H25.33l-1.88-3.21v3.21ZM23.45,9h.41a1.87,1.87,0,0,0,1.06-.24A.91.91,0,0,0,25.25,8a1.06,1.06,0,0,0-.31-.87,1.61,1.61,0,0,0-1-.26h-.45Z"/><path class="cls-1" d="M27.74,13.36l2.83-8.2h2.8l2.84,8.2H34l-.41-1.47H30.39L30,13.36Zm3.14-3.07H33.1l-.83-2.7a3.29,3.29,0,0,1-.11-.4c0-.18-.1-.42-.18-.71,0,.21-.09.4-.14.58s-.09.36-.14.53Z"/><path class="cls-1" d="M37,13.36V5.16H38.7a13.75,13.75,0,0,1,2.7.18,3.93,3.93,0,0,1,1.4.6A3.46,3.46,0,0,1,44,7.33a4.41,4.41,0,0,1,.4,1.93A4.46,4.46,0,0,1,44,11.2a3.52,3.52,0,0,1-1.18,1.39,3.88,3.88,0,0,1-1.36.59,11.19,11.19,0,0,1-2.36.18H37Zm2.22-1.84h.37A2.82,2.82,0,0,0,41.5,11a2.17,2.17,0,0,0,.61-1.72,2.18,2.18,0,0,0-.61-1.72A2.77,2.77,0,0,0,39.58,7h-.37Z"/><rect class="cls-1" x="45.84" y="5.16" width="2.26" height="8.2"/><path class="cls-1" d="M48.94,13.36l2.83-8.2h2.8l2.83,8.2H55.18l-.42-1.47H51.59l-.43,1.47Zm3.13-3.07h2.22l-.83-2.7c0-.08-.06-.22-.11-.4s-.1-.42-.17-.71c0,.21-.1.4-.14.58s-.1.36-.15.53Z"/><path class="cls-1" d="M58.19,13.36V5.16h2.15l3.1,4.22a4.91,4.91,0,0,1,.3.51l.45.93c0-.34-.08-.64-.1-.91s0-.5,0-.7V5.16H66.2v8.2H64.06L61,9.12c-.06-.08-.16-.26-.3-.51s-.29-.57-.44-.92c0,.34.07.65.09.91s0,.5,0,.71v4Z"/><polygon class="cls-1" points="69.14 13.36 69.14 7.09 67.31 7.09 67.31 5.16 73.22 5.16 73.22 7.09 71.38 7.09 71.38 13.36 69.14 13.36"/><polygon class="cls-1" points="74.31 13.36 74.31 5.16 79.33 5.16 79.33 6.96 76.49 6.96 76.49 8.38 79.17 8.38 79.17 10.14 76.49 10.14 76.49 11.52 79.33 11.52 79.33 13.36 74.31 13.36"/><polygon class="cls-1" points="80.96 13.36 80.96 5.16 85.02 5.16 85.02 5.86 81.7 5.86 81.7 8.42 84.9 8.42 84.9 9.12 81.7 9.12 81.7 13.36 80.96 13.36"/><polygon class="cls-1" points="90.45 13.69 87.57 7.11 86.95 13.37 86.18 13.37 87.3 4.82 90.44 12.12 93.7 4.82 94.75 13.37 93.99 13.37 93.38 7.11 90.45 13.69"/><path class="cls-1" d="M12.52,12.67l-2-2.94A2,2,0,0,0,11.75,9a2.14,2.14,0,0,0,.41-1.38,2.45,2.45,0,0,0-.21-1,2,2,0,0,0-.6-.76,2.43,2.43,0,0,0-.83-.38,9.12,9.12,0,0,0-1.7-.11H6.74v7.3H8.6V9.81l1.67,2.86ZM9.91,8.6A1.57,1.57,0,0,1,9,8.82H8.6V6.9H9a1.51,1.51,0,0,1,.93.23,1,1,0,0,1,.28.78.78.78,0,0,1-.3.69"/><path class="cls-1" d="M9.26,0a9.26,9.26,0,1,0,9.26,9.26A9.27,9.27,0,0,0,9.26,0M.82,9.26A8.45,8.45,0,0,1,9.26.81v.82A7.64,7.64,0,0,0,1.63,9.26Zm1.69,0A6.76,6.76,0,0,1,9.26,2.51v.82A5.91,5.91,0,0,0,3.33,9.26Zm1.84,0a4.91,4.91,0,1,1,4.91,4.91A4.91,4.91,0,0,1,4.35,9.26M9.26,16v-.81a5.94,5.94,0,0,0,5.93-5.93H16A6.73,6.73,0,0,1,9.26,16m0,1.7v-.82a7.63,7.63,0,0,0,7.62-7.62h.82A8.45,8.45,0,0,1,9.26,17.7"/><path class="cls-1" d="M12.52,12.67l-2-2.94A2,2,0,0,0,11.75,9a2.14,2.14,0,0,0,.41-1.38,2.45,2.45,0,0,0-.21-1,2,2,0,0,0-.6-.76,2.43,2.43,0,0,0-.83-.38,9.12,9.12,0,0,0-1.7-.11H6.74v7.3H8.6V9.81l1.67,2.86ZM9.91,8.6A1.57,1.57,0,0,1,9,8.82H8.6V6.9H9a1.51,1.51,0,0,1,.93.23,1,1,0,0,1,.28.78.78.78,0,0,1-.3.69"/><path class="cls-1" d="M9.26,0a9.26,9.26,0,1,0,9.26,9.26A9.27,9.27,0,0,0,9.26,0M.82,9.26A8.45,8.45,0,0,1,9.26.81v.82A7.64,7.64,0,0,0,1.63,9.26Zm1.69,0A6.76,6.76,0,0,1,9.26,2.51v.82A5.91,5.91,0,0,0,3.33,9.26Zm1.84,0a4.91,4.91,0,1,1,4.91,4.91A4.91,4.91,0,0,1,4.35,9.26M9.26,16v-.81a5.94,5.94,0,0,0,5.93-5.93H16A6.73,6.73,0,0,1,9.26,16m0,1.7v-.82a7.63,7.63,0,0,0,7.62-7.62h.82A8.45,8.45,0,0,1,9.26,17.7"/></g></g></svg>