<svg xmlns="http://www.w3.org/2000/svg" viewBox="0 0 75 52.3"><defs><style>.cls-1{fill:#fff;}</style></defs><g id="Capa_2" data-name="Capa 2"><g id="Capa_1-2" data-name="Capa 1"><path class="cls-1" d="M44.59,27.52l-4.32-6.39a4.37,4.37,0,0,0,2.64-1.53,4.71,4.71,0,0,0,.9-3,5.22,5.22,0,0,0-.46-2.22A4.27,4.27,0,0,0,42,12.73a4.78,4.78,0,0,0-1.8-.81,18.15,18.15,0,0,0-3.7-.25H32V27.52h4v-6.2l3.64,6.2Zm-5.68-8.83a3.43,3.43,0,0,1-2,.47h-.8V15h.87a3.15,3.15,0,0,1,2,.5,2.1,2.1,0,0,1,.6,1.69A1.75,1.75,0,0,1,38.91,18.69Z"/><path class="cls-1" d="M37.5,0A20.12,20.12,0,1,0,57.61,20.11,20.13,20.13,0,0,0,37.5,0ZM19.16,20.11A18.36,18.36,0,0,1,37.5,1.77V3.55A16.58,16.58,0,0,0,20.93,20.11Zm3.69,0A14.63,14.63,0,0,1,37.5,5.46V7.23A12.87,12.87,0,0,0,24.62,20.11Zm4,0A10.66,10.66,0,1,1,37.5,30.78,10.67,10.67,0,0,1,26.84,20.11ZM37.5,34.77V33A12.87,12.87,0,0,0,50.38,20.11h1.77A14.63,14.63,0,0,1,37.5,34.77Zm0,3.69V36.68A16.58,16.58,0,0,0,54.07,20.11h1.77A18.37,18.37,0,0,1,37.5,38.46Z"/><path class="cls-1" d="M0,52V43.59H2.39a10.41,10.41,0,0,1,1.95.13,2.51,2.51,0,0,1,1,.43A2.16,2.16,0,0,1,6,45a2.81,2.81,0,0,1,.24,1.17,2.57,2.57,0,0,1-.47,1.59,2.42,2.42,0,0,1-1.4.81L6.65,52H4.06L2.14,48.69V52Zm2.14-4.42h.42a1.79,1.79,0,0,0,1.08-.25A.91.91,0,0,0,4,46.51a1.09,1.09,0,0,0-.31-.89,1.68,1.68,0,0,0-1.07-.27H2.14Z"/><path class="cls-1" d="M6.53,52l2.89-8.38h2.86L15.18,52H12.91l-.43-1.5H9.24L8.8,52Zm3.2-3.13H12l-.85-2.76c0-.09-.06-.22-.11-.41s-.1-.43-.18-.72c0,.21-.09.4-.14.59l-.15.54Z"/><path class="cls-1" d="M16,52V43.59h1.75a13.48,13.48,0,0,1,2.76.19,3.87,3.87,0,0,1,1.42.61,3.54,3.54,0,0,1,1.21,1.42,5,5,0,0,1,0,4,3.6,3.6,0,0,1-1.21,1.42,3.91,3.91,0,0,1-1.38.6,11.79,11.79,0,0,1-2.42.18H16Zm2.26-1.87h.39a2.89,2.89,0,0,0,2-.56,2.24,2.24,0,0,0,.62-1.75A2.27,2.27,0,0,0,20.59,46a2.83,2.83,0,0,0-2-.57h-.39Z"/><path class="cls-1" d="M25,52V43.59h2.31V52Z"/><path class="cls-1" d="M28.19,52l2.89-8.38h2.86L36.84,52H34.56l-.42-1.5H30.89L30.46,52Zm3.2-3.13h2.27l-.85-2.76a3.59,3.59,0,0,1-.11-.41q-.08-.29-.18-.72c-.05.21-.1.4-.15.59s-.09.37-.14.54Z"/><path class="cls-1" d="M37.64,52V43.59h2.2L43,47.9c.06.09.16.27.3.53s.29.58.46,1c-.05-.35-.08-.66-.1-.93s0-.51,0-.72V43.59h2.19V52H43.64l-3.17-4.32c-.06-.09-.17-.27-.31-.53s-.29-.58-.45-.94c0,.35.08.66.1.93s0,.51,0,.72V52Z"/><path class="cls-1" d="M48.83,52v-6.4H47v-2h6v2H51.12V52Z"/><path class="cls-1" d="M54.11,52V43.59h5.14v1.84H56.34v1.45h2.74v1.8H56.34V50.1h2.91V52Z"/><path class="cls-1" d="M60.91,52V43.59h4.15v.72H61.67v2.62h3.26v.72H61.67V52Z"/><path class="cls-1" d="M70.6,52.3l-2.94-6.73L67,52h-.79l1.14-8.73,3.21,7.46,3.33-7.46L75,52h-.78l-.63-6.4Z"/></g></g></svg>