<svg xmlns="http://www.w3.org/2000/svg" viewBox="0 0 227.73 44.5"><defs><style>.cls-1{fill:#101820;}</style></defs><g id="Capa_2" data-name="Capa 2"><g id="Capa_1-2" data-name="Capa 1"><path class="cls-1" d="M51.32,32.11V12.4h5.61a23.68,23.68,0,0,1,4.6.3,5.9,5.9,0,0,1,2.24,1,5.35,5.35,0,0,1,1.64,2.06A6.63,6.63,0,0,1,66,18.54a5.86,5.86,0,0,1-1.12,3.72,5.51,5.51,0,0,1-3.28,1.9l5.37,8H60.88l-4.53-7.72v7.72Zm5-10.4h1a4.36,4.36,0,0,0,2.54-.59,2.17,2.17,0,0,0,.8-1.86,2.61,2.61,0,0,0-.75-2.11,3.91,3.91,0,0,0-2.51-.62H56.35Z"/><path class="cls-1" d="M66.68,32.11l6.8-19.71h6.73L87,32.11H81.68l-1-3.53H73.05l-1,3.53Zm7.53-7.37h5.34l-2-6.5c-.07-.2-.15-.52-.26-1l-.42-1.69c-.11.48-.23.94-.34,1.38s-.23.87-.34,1.27Z"/><path class="cls-1" d="M88.91,32.11V12.4H93a33.17,33.17,0,0,1,6.49.43,9.06,9.06,0,0,1,3.35,1.44,8.42,8.42,0,0,1,2.84,3.34,10.65,10.65,0,0,1,1,4.65,10.67,10.67,0,0,1-1,4.66,8.42,8.42,0,0,1-2.84,3.34,9.14,9.14,0,0,1-3.26,1.42,26.89,26.89,0,0,1-5.68.43h-5Zm5.32-4.42h.9a6.8,6.8,0,0,0,4.62-1.3,5.26,5.26,0,0,0,1.46-4.13,5.33,5.33,0,0,0-1.46-4.14,6.74,6.74,0,0,0-4.62-1.32h-.9Z"/><rect class="cls-1" x="110.17" y="12.4" width="5.43" height="19.71"/><path class="cls-1" d="M117.62,32.11l6.8-19.71h6.73L138,32.11h-5.34l-1-3.53H124l-1,3.53Zm7.52-7.37h5.35l-2-6.5c-.06-.2-.15-.52-.25-1l-.42-1.69L127.47,17c-.11.44-.23.87-.35,1.27Z"/><path class="cls-1" d="M139.85,32.11V12.4H145l7.45,10.13c.14.21.38.63.7,1.25s.69,1.37,1.09,2.23q-.17-1.23-.24-2.19c-.05-.63-.07-1.2-.07-1.69V12.4h5.16V32.11H154l-7.45-10.18a12.22,12.22,0,0,1-.72-1.25c-.33-.62-.68-1.35-1.07-2.2.11.83.19,1.56.24,2.2s.07,1.2.07,1.69v9.74Z"/><polygon class="cls-1" points="166.18 32.11 166.18 17.05 161.77 17.05 161.77 12.39 175.97 12.39 175.97 17.05 171.56 17.05 171.56 32.11 166.18 32.11"/><polygon class="cls-1" points="178.6 32.11 178.6 12.39 190.68 12.39 190.68 16.72 183.84 16.72 183.84 20.14 190.29 20.14 190.29 24.37 183.84 24.37 183.84 27.69 190.68 27.69 190.68 32.11 178.6 32.11"/><polygon class="cls-1" points="194.58 32.11 194.58 12.39 204.34 12.39 204.34 14.08 196.37 14.08 196.37 20.25 204.05 20.25 204.05 21.93 196.37 21.93 196.37 32.11 194.58 32.11"/><polygon class="cls-1" points="217.39 32.91 210.47 17.09 208.97 32.14 207.13 32.14 209.81 11.6 217.36 29.14 225.2 11.6 227.73 32.14 225.89 32.14 224.42 17.09 217.39 32.91"/><path class="cls-1" d="M51.32,32.11V12.4h5.61a23.68,23.68,0,0,1,4.6.3,5.9,5.9,0,0,1,2.24,1,5.35,5.35,0,0,1,1.64,2.06A6.63,6.63,0,0,1,66,18.54a5.86,5.86,0,0,1-1.12,3.72,5.51,5.51,0,0,1-3.28,1.9l5.37,8H60.88l-4.53-7.72v7.72Zm5-10.4h1a4.36,4.36,0,0,0,2.54-.59,2.17,2.17,0,0,0,.8-1.86,2.61,2.61,0,0,0-.75-2.11,3.91,3.91,0,0,0-2.51-.62H56.35Z"/><path class="cls-1" d="M66.68,32.11l6.8-19.71h6.73L87,32.11H81.68l-1-3.53H73.05l-1,3.53Zm7.53-7.37h5.34l-2-6.5c-.07-.2-.15-.52-.26-1l-.42-1.69c-.11.48-.23.94-.34,1.38s-.23.87-.34,1.27Z"/><path class="cls-1" d="M88.91,32.11V12.4H93a33.17,33.17,0,0,1,6.49.43,9.06,9.06,0,0,1,3.35,1.44,8.42,8.42,0,0,1,2.84,3.34,10.65,10.65,0,0,1,1,4.65,10.67,10.67,0,0,1-1,4.66,8.42,8.42,0,0,1-2.84,3.34,9.14,9.14,0,0,1-3.26,1.42,26.89,26.89,0,0,1-5.68.43h-5Zm5.32-4.42h.9a6.8,6.8,0,0,0,4.62-1.3,5.26,5.26,0,0,0,1.46-4.13,5.33,5.33,0,0,0-1.46-4.14,6.74,6.74,0,0,0-4.62-1.32h-.9Z"/><rect class="cls-1" x="110.17" y="12.4" width="5.43" height="19.71"/><path class="cls-1" d="M117.62,32.11l6.8-19.71h6.73L138,32.11h-5.34l-1-3.53H124l-1,3.53Zm7.52-7.37h5.35l-2-6.5c-.06-.2-.15-.52-.25-1l-.42-1.69L127.47,17c-.11.44-.23.87-.35,1.27Z"/><path class="cls-1" d="M139.85,32.11V12.4H145l7.45,10.13c.14.21.38.63.7,1.25s.69,1.37,1.09,2.23q-.17-1.23-.24-2.19c-.05-.63-.07-1.2-.07-1.69V12.4h5.16V32.11H154l-7.45-10.18a12.22,12.22,0,0,1-.72-1.25c-.33-.62-.68-1.35-1.07-2.2.11.83.19,1.56.24,2.2s.07,1.2.07,1.69v9.74Z"/><polygon class="cls-1" points="166.18 32.11 166.18 17.05 161.77 17.05 161.77 12.39 175.97 12.39 175.97 17.05 171.56 17.05 171.56 32.11 166.18 32.11"/><polygon class="cls-1" points="178.6 32.11 178.6 12.39 190.68 12.39 190.68 16.72 183.84 16.72 183.84 20.14 190.29 20.14 190.29 24.37 183.84 24.37 183.84 27.69 190.68 27.69 190.68 32.11 178.6 32.11"/><polygon class="cls-1" points="194.58 32.11 194.58 12.39 204.34 12.39 204.34 14.08 196.37 14.08 196.37 20.25 204.05 20.25 204.05 21.93 196.37 21.93 196.37 32.11 194.58 32.11"/><polygon class="cls-1" points="217.39 32.91 210.47 17.09 208.97 32.14 207.13 32.14 209.81 11.6 217.36 29.14 225.2 11.6 227.73 32.14 225.89 32.14 224.42 17.09 217.39 32.91"/><path class="cls-1" d="M30.1,30.45l-4.78-7.07a4.89,4.89,0,0,0,2.92-1.69,5.29,5.29,0,0,0,1-3.32,5.81,5.81,0,0,0-.51-2.45,4.8,4.8,0,0,0-1.46-1.84,5.26,5.26,0,0,0-2-.9,20.83,20.83,0,0,0-4.09-.27h-5V30.45h4.48V23.58l4,6.87Zm-6.28-9.78a3.79,3.79,0,0,1-2.26.53h-.89V16.59h1a3.42,3.42,0,0,1,2.23.56A2.29,2.29,0,0,1,24.53,19a1.92,1.92,0,0,1-.71,1.65"/><path class="cls-1" d="M22.25,0A22.25,22.25,0,1,0,44.5,22.25,22.27,22.27,0,0,0,22.25,0M2,22.25A20.31,20.31,0,0,1,22.25,2v2A18.35,18.35,0,0,0,3.92,22.25Zm4.08,0A16.18,16.18,0,0,1,22.25,6V8A14.24,14.24,0,0,0,8,22.25Zm4.41,0a11.8,11.8,0,1,1,11.8,11.8,11.81,11.81,0,0,1-11.8-11.8m11.8,16.21v-2A14.24,14.24,0,0,0,36.5,22.25h2A16.18,16.18,0,0,1,22.25,38.46m0,4.08v-2A18.35,18.35,0,0,0,40.58,22.25h2A20.31,20.31,0,0,1,22.25,42.54"/><path class="cls-1" d="M30.1,30.45l-4.78-7.07a4.89,4.89,0,0,0,2.92-1.69,5.29,5.29,0,0,0,1-3.32,5.81,5.81,0,0,0-.51-2.45,4.8,4.8,0,0,0-1.46-1.84,5.26,5.26,0,0,0-2-.9,20.83,20.83,0,0,0-4.09-.27h-5V30.45h4.48V23.58l4,6.87Zm-6.28-9.78a3.79,3.79,0,0,1-2.26.53h-.89V16.59h1a3.42,3.42,0,0,1,2.23.56A2.29,2.29,0,0,1,24.53,19a1.92,1.92,0,0,1-.71,1.65"/><path class="cls-1" d="M22.25,0A22.25,22.25,0,1,0,44.5,22.25,22.27,22.27,0,0,0,22.25,0M2,22.25A20.31,20.31,0,0,1,22.25,2v2A18.35,18.35,0,0,0,3.92,22.25Zm4.08,0A16.18,16.18,0,0,1,22.25,6V8A14.24,14.24,0,0,0,8,22.25Zm4.41,0a11.8,11.8,0,1,1,11.8,11.8,11.81,11.81,0,0,1-11.8-11.8m11.8,16.21v-2A14.24,14.24,0,0,0,36.5,22.25h2A16.18,16.18,0,0,1,22.25,38.46m0,4.08v-2A18.35,18.35,0,0,0,40.58,22.25h2A20.31,20.31,0,0,1,22.25,42.54"/></g></g></svg>