<svg xmlns="http://www.w3.org/2000/svg" viewBox="0 0 500 130.13"><g id="Capa_2" data-name="Capa 2"><g id="Ícono_01"><path d="M383,110.29c1.78-12.1,3.57-24.9,5.35-37H371.94c-.55,3.67-1.08,7.87-1.61,11.44-1.37,9.26-2.76,18.52-4.1,27.79-.42,2.9-1,5.8-.63,8.78s1.46,5.87,4.16,7.44c3.18,1.84,6.56,1.69,9.94.69a1.62,1.62,0,0,0,.77-.85c1.2-2.58,2.37-5.17,3.54-7.76l1.5-3.34c-2.46-1-3-3-2.7-5.43C382.87,111.44,382.93,110.87,383,110.29Z"/><path d="M343.63,113.87a28.31,28.31,0,0,1-4.92-.42c.69,3.37,3,4.46,7.08,4.46a31.21,31.21,0,0,0,12.09-2.69l-.69,11.54c-3.54,1.69-11.06,3.37-17.62,3.37-12.09,0-19.09-5.73-19.09-16.93,0-14.83,12.27-26.88,28.33-26.88,9.33,0,15.29,4,15.29,11.79C364.1,107.21,355.81,113.87,343.63,113.87Zm-3.46-7.58c4.24,0,7.26-2.61,7.26-6.32,0-1.94-.78-3-2.07-3-2.68,0-5.44,4.13-6.48,9.18A6.23,6.23,0,0,0,340.17,106.29Z"/><path d="M277.06,86.32h17.53a306.23,306.23,0,0,0,.6,32h.18a168.94,168.94,0,0,0,10-32h17a289.77,289.77,0,0,1-17,43.81h-25C278.78,117.07,277.66,103.08,277.06,86.32Z"/><path d="M270.64,117.32l-6,12a12.61,12.61,0,0,1-5,.84c-6,0-8.81-2.61-9.85-6.4a16.28,16.28,0,0,1-13.39,6.4c-9,0-14.25-5.56-14.25-15.67,0-15.92,13.22-28.14,31.87-28.14a37.2,37.2,0,0,1,9.25,1.09l8.46-1.09c-3.71,23-4.15,25.28-4.15,26.71C267.53,115.05,268.23,116.4,270.64,117.32Zm-19.95-14.57.69-4.13a8.34,8.34,0,0,0-1.9-.25c-4.83,0-8.2,7.07-8.2,15.08,0,3.2.69,4.63,2.59,4.63C246.81,118.08,248.62,114.38,250.69,102.75Z"/><path d="M223.73,88l-4.84,16.85a14.64,14.64,0,0,0-4.84-.84c-4.4,0-7.6,2.11-9.76,13.23l-2.07,12.89H183.91c4-24.52,4.15-25.53,4.15-26.37a4.09,4.09,0,0,0-2.85-4.13l7.17-12.47c6.91,0,13,2,14.25,7.08A10.29,10.29,0,0,1,207,96c3-6.24,6.91-8.85,12-8.85A14.56,14.56,0,0,1,223.73,88Z"/><polygon points="187.54 73.26 142.63 73.26 142.63 88.35 155.41 88.35 155.41 130.13 174.85 130.13 174.85 88.35 185.21 88.35 187.54 73.26 187.54 73.26"/><polygon points="470.58 49.78 470.58 41.21 494.44 41.21 496.54 27.91 490.31 27.91 470.58 27.91 470.58 20.08 497.78 20.08 500 7.06 453.52 7.06 453.52 63.81 490.85 63.81 493.07 49.78 470.58 49.78"/><polygon points="427 6.81 427 22.78 427 35.37 406.1 6.81 388.37 6.81 388.37 10.33 388.37 63.81 405.35 63.81 405.35 45.7 405.35 33.14 428.17 63.81 444.06 63.81 444.06 58.67 444.06 6.81 427 6.81"/><path d="M326.23,37l0-29.91h17.06l0,28.28c0,9.62,2.68,13,9.28,13s9.29-3.35,9.29-13l0-28.28H378.9l0,29.83c0,17.29-8.62,26.92-26.35,26.92C334.35,63.81,326.23,54.67,326.23,37Z"/><path d="M273.78,63.81V7.06h21.07c15,0,21.91,4.78,21.91,14.33,0,5.71-3.84,10.44-9.61,12.07v.25c7.94,1.87,12.45,6.6,12.45,13.78,0,10.53-7.44,16.32-23.83,16.32ZM290.84,28.4h3.43c4.51,0,6.6-1.79,6.6-4.89,0-3.26-2.09-5.06-6.77-5.06h-3.26Zm0,22.52h4.1c5.68,0,8.11-2,8.11-5.71,0-3.51-2.51-5.55-7.95-5.55h-4.26Z"/><path d="M247.27,7.06h17.06V63.81H247.27Z"/><path d="M243.49,62.34l-.58,1.47H224.85L211.47,43.74h-2.76V63.81H191.32V7.06h22.82c15.89,0,23.67,5.44,23.67,18.33,0,7.42-3.43,12.72-9.7,15.58Zm-34.78-43v12h4.85c5.1,0,7.78-2,7.78-5.95,0-4.16-2.68-6-7.78-6Z"/><polygon points="187.54 6.94 142.63 6.94 142.63 22.03 155.41 22.03 155.41 63.81 174.85 63.81 174.85 22.03 185.21 22.03 187.54 6.94 187.54 6.94"/><path d="M19.13,19.11A65.28,65.28,0,0,0,2,81.55a3.4,3.4,0,0,0,.23.94,65.36,65.36,0,0,0,16.86,29.05,4.76,4.76,0,0,0,.38.34A64.25,64.25,0,0,0,64.31,130h62.26a3.42,3.42,0,0,0,2.42-1,3.46,3.46,0,0,0,1-2.43V64.29a64.21,64.21,0,0,0-18.1-44.79,4.42,4.42,0,0,0-.34-.39A65.43,65.43,0,0,0,19.13,19.11ZM91.41,91.4a36.88,36.88,0,1,1,0-52.15A36.91,36.91,0,0,1,91.41,91.4Z"/><path d="M40.92,65.32A24.42,24.42,0,1,0,65.34,40.9,24.44,24.44,0,0,0,40.92,65.32Z"/></g></g></svg>