<svg xmlns="http://www.w3.org/2000/svg" viewBox="0 0 170 44.24"><defs><style>.cls-1{fill:#fff;}</style></defs><g id="Capa_2" data-name="Capa 2"><g id="Capa_1-2" data-name="Capa 1"><path class="cls-1" d="M76.07,29.92l-1.65,5.73a5,5,0,0,0-1.64-.29c-1.5,0-2.59.72-3.32,4.5l-.7,4.38H62.53c1.35-8.33,1.41-8.68,1.41-9a1.4,1.4,0,0,0-1-1.41l2.44-4.24c2.35,0,4.4.69,4.84,2.41a3.54,3.54,0,0,1,.12.6c1-2.12,2.35-3,4.08-3A5,5,0,0,1,76.07,29.92Z"/><path class="cls-1" d="M92,39.89,90,44a4.22,4.22,0,0,1-1.7.28c-2,0-3-.88-3.35-2.17a5.53,5.53,0,0,1-4.55,2.17c-3,0-4.84-1.89-4.84-5.32,0-5.42,4.49-9.57,10.83-9.57a12.47,12.47,0,0,1,3.14.37l2.88-.37C91.11,37.17,91,37.94,91,38.43A1.39,1.39,0,0,0,92,39.89Zm-6.78-5,.23-1.4a2.73,2.73,0,0,0-.65-.09c-1.64,0-2.79,2.41-2.79,5.13,0,1.09.24,1.58.89,1.58C83.91,40.15,84.53,38.89,85.24,34.93Z"/><path class="cls-1" d="M94.2,29.35h6a102,102,0,0,0,.21,10.88h0a56.83,56.83,0,0,0,3.41-10.88h5.79a99.2,99.2,0,0,1-5.79,14.89H95.34C94.79,39.8,94.4,35.05,94.2,29.35Z"/><path class="cls-1" d="M116.83,38.72a9.16,9.16,0,0,1-1.67-.15c.23,1.15,1,1.52,2.41,1.52a10.48,10.48,0,0,0,4.11-.92l-.24,3.93a16.37,16.37,0,0,1-6,1.14c-4.11,0-6.49-1.94-6.49-5.75a9.31,9.31,0,0,1,9.64-9.14c3.17,0,5.19,1.37,5.19,4C123.79,36.45,121,38.72,116.83,38.72Zm-1.17-2.58A2.24,2.24,0,0,0,118.13,34c0-.66-.27-1-.71-1-.91,0-1.85,1.4-2.2,3.12A2.17,2.17,0,0,0,115.66,36.14Z"/><polygon class="cls-1" points="63.77 24.91 48.49 24.91 48.49 30.04 52.84 30.04 52.84 44.24 59.45 44.24 59.45 30.04 62.97 30.04 63.77 24.91 63.77 24.91"/><path class="cls-1" d="M130.23,37.5c.6-4.11,1.21-8.47,1.82-12.59h-5.59c-.19,1.25-.37,2.67-.55,3.89-.46,3.15-.94,6.3-1.39,9.45a10.62,10.62,0,0,0-.21,3,3.13,3.13,0,0,0,1.41,2.53,4.12,4.12,0,0,0,3.38.24.62.62,0,0,0,.26-.29c.41-.88.8-1.76,1.2-2.64.17-.36.33-.73.51-1.14a1.56,1.56,0,0,1-.92-1.84C130.18,37.89,130.2,37.69,130.23,37.5Z"/><polygon class="cls-1" points="160 16.92 160 14.01 168.11 14.01 168.82 9.49 166.71 9.49 160 9.49 160 6.83 169.25 6.83 170 2.4 154.2 2.4 154.2 21.7 166.89 21.7 167.64 16.92 160 16.92"/><path class="cls-1" d="M82.79,21.2l-.2.49H76.45L71.9,14.87H71v6.82H65.05V2.4h7.76c5.4,0,8,1.85,8,6.23a5.43,5.43,0,0,1-3.3,5.3ZM71,6.58v4.08h1.65c1.73,0,2.64-.67,2.64-2s-.91-2.05-2.64-2.05Z"/><path class="cls-1" d="M84.07,2.4h5.8V21.69h-5.8Z"/><path class="cls-1" d="M93.09,21.69V2.4h7.16c5.09,0,7.45,1.63,7.45,4.87a4.29,4.29,0,0,1-3.27,4.11v.08c2.7.64,4.24,2.25,4.24,4.69,0,3.58-2.53,5.54-8.11,5.54Zm5.8-12h1.16c1.54,0,2.25-.61,2.25-1.67s-.71-1.72-2.31-1.72h-1.1Zm0,7.65h1.39c1.93,0,2.76-.66,2.76-1.94s-.86-1.88-2.7-1.88H98.89Z"/><path class="cls-1" d="M110.92,12.57V2.4h5.8V12c0,3.27.91,4.41,3.16,4.41S123,15.29,123,12V2.4h5.8V12.54c0,5.88-2.93,9.15-9,9.15C113.68,21.69,110.92,18.59,110.92,12.57Z"/><polygon class="cls-1" points="63.77 2.36 48.49 2.36 48.49 7.49 52.84 7.49 52.84 21.7 59.45 21.7 59.45 7.49 62.97 7.49 63.77 2.36 63.77 2.36"/><polygon class="cls-1" points="145.18 2.32 145.18 7.74 145.18 12.03 138.07 2.32 132.05 2.32 132.05 3.51 132.05 21.7 137.82 21.7 137.82 15.54 137.82 11.27 145.58 21.7 150.98 21.7 150.98 19.95 150.98 2.32 145.18 2.32"/><path class="cls-1" d="M6.5,6.5A22.21,22.21,0,0,0,.69,27.73a1.25,1.25,0,0,0,.08.32A22.21,22.21,0,0,0,6.5,37.92l.13.12a21.85,21.85,0,0,0,15.23,6.15H43a1.17,1.17,0,0,0,.83-.34A1.19,1.19,0,0,0,44.2,43V21.86A21.82,21.82,0,0,0,38,6.63a.58.58,0,0,0-.11-.13A22.24,22.24,0,0,0,6.5,6.5ZM31.08,31.08a12.54,12.54,0,1,1,0-17.74A12.57,12.57,0,0,1,31.08,31.08Z"/><path class="cls-1" d="M13.91,22.21a8.31,8.31,0,1,0,8.3-8.3A8.31,8.31,0,0,0,13.91,22.21Z"/></g></g></svg>