<svg xmlns="http://www.w3.org/2000/svg" viewBox="0 0 170 25.49"><defs><style>.cls-1{fill:#fff;}</style></defs><g id="Capa_2" data-name="Capa 2"><g id="Capa_1-2" data-name="Capa 1"><path class="cls-1" d="M7.29,6.21H0V0H22.44V6.21H15.16V24.63H7.29Z"/><path class="cls-1" d="M24.26,0H40.84c2.26,0,3.63.24,4.71.9,1.48.89,2.71,3.27,2.71,6,0,2.32-.78,4.8-3.07,5.63v.07c1.17.41,2.12,1.65,2.26,3.79l.34,5.38a6.24,6.24,0,0,0,1,2.9H40.17c-.28-.73-.28-1.8-.42-4.66-.08-1.83-.59-2.93-2-2.93H32.13v7.59H24.26Zm7.87,10.83h5.58c1.54,0,2.18-.76,2.18-2.31,0-1.86-1-2.31-2.29-2.31H32.13Z"/><path class="cls-1" d="M51.2,0h7.87V24.63H51.2Z"/><path class="cls-1" d="M63,0H80.92C85,0,86.81,2.21,86.81,6.14c0,2.17-.86,4.07-2.37,4.79V11c2.57.83,3.41,3.8,3.41,5.63,0,4.82-2,8-7.79,8H63Zm7.71,9.18h5.94c1.59,0,2-.66,2-1.63S78.24,6,76.65,6H70.71Zm0,9.45h6.72c1.57,0,2-.83,2-1.94s-.47-1.93-2-1.93H70.71Z"/><path class="cls-1" d="M90.5,0h7.87V14.9c0,3.17,1.48,4.18,4,4.18s4-1,4-4.18V0h7.87V15.28c0,7.83-3.83,10.21-11.92,10.21S90.5,23.11,90.5,15.28Z"/><path class="cls-1" d="M117.77,0h9l8,13.66h.09V0h7.53V24.63h-8.62l-8.37-13.8h-.06v13.8h-7.54Z"/><path class="cls-1" d="M151.86,0h9.65L170,24.63h-8.37l-.84-2.83h-8.21l-.83,2.83h-8.38Zm4.85,7.45h-.05l-2.35,8.35h4.75Z"/></g></g></svg>