<svg xmlns="http://www.w3.org/2000/svg" viewBox="0 0 115 26.2"><defs><style>.cls-1,.cls-2{fill:#fff;}.cls-1{opacity:0.72;}</style></defs><g id="Capa_2" data-name="Capa 2"><g id="Capa_1-2" data-name="Capa 1"><path class="cls-1" d="M7.91,26.17A5.34,5.34,0,0,0,0,19.1v7.07Z"/><path class="cls-1" d="M25.6,7.75a10.69,10.69,0,0,0-1.27-.08,10.09,10.09,0,0,0-5.58,18.5H25.6Z"/><path class="cls-1" d="M21.16,20.61A7.78,7.78,0,1,0,7.94,26.17H18.82A7.74,7.74,0,0,0,21.16,20.61Z"/><polygon class="cls-2" points="52.58 10.74 44.98 18.43 43.93 18.43 36.29 10.74 36.29 26.2 31 26.2 31 0 32.44 0 44.37 11.75 56.42 0 57.82 0 57.82 26.2 52.58 26.2 52.58 10.74"/><path class="cls-2" d="M74.6,9.56h-.35l-4,8.56-.3.57h8.91l-.31-.57ZM74,0h.92L88.4,26.2h-6l-1.7-3.58H68.18L66.52,26.2h-6Z"/><path class="cls-2" d="M102.77,4.63H96.4v9.13h6.5c3.32,0,5.33-1.49,5.33-4.54s-2-4.59-5.46-4.59M91.11,0H103c6.63,0,10.74,3.28,10.74,9a8.35,8.35,0,0,1-4.94,8v.39l6.25,8.3v.52h-6l-5.81-8H96.4v8H91.11Z"/><polygon class="cls-2" points="2.83 2.64 8.43 2.64 8.43 3.8 6.3 3.8 6.3 9.2 4.98 9.2 4.98 3.8 2.83 3.8 2.83 2.64"/><polygon class="cls-2" points="13.01 6.83 13.12 6.83 13.65 5.58 15.05 2.64 16.55 2.64 13.17 9.2 12.93 9.2 9.57 2.64 11.06 2.64 12.47 5.58 13.01 6.83"/></g></g></svg>