<?xml version="1.0" encoding="UTF-8"?><svg id="Capa_2" xmlns="http://www.w3.org/2000/svg" viewBox="0 0 166.46 35"><defs><style>.cls-1,.cls-2,.cls-3{fill:#fff;}.cls-2{opacity:.8;}.cls-3{opacity:.6;}</style></defs><g id="Logos"><g><g><g><path class="cls-1" d="M61.88,25.45c-1.01,0-1.8-.29-2.38-.87-.58-.58-.87-1.37-.87-2.38v-6.3h3.94v-5.18h-3.94l-.23-4.84h-6.35v4.84h-3.25v5.18h3.25v6.9c0,2.35,.81,4.29,2.42,5.82,1.61,1.53,3.73,2.3,6.34,2.3,.65,0,1.23-.04,1.75-.11v-5.43c-.27,.04-.5,.07-.69,.07Z"/><path class="cls-1" d="M73.59,30.36l-10.1-19.65h7.12l4.37,9.63,4.39-9.63h7.14l-10.11,19.65h-2.8Z"/></g><g><path class="cls-1" d="M145.02,10.75h0l-.07,1.43c-6.41-4.28-15.75,.8-15.52,8.59-.23,7.83,9.19,12.9,15.59,8.55v1.09h5.27V10.75h-5.27Zm-5.45,14.92c-6.37-.03-6.37-9.72,0-9.75,6.37,.03,6.37,9.72,0,9.75Z"/><path class="cls-1" d="M162.81,10.71c-1.42,.66-2.43,1.81-3.08,3.38h-.08l-.16-3.38h-6.22V30.41c.19,0,6.83,0,6.78,0v-7.46c0-.7,.04-1.41,.17-2.1,.53-2.94,2.08-5.16,6.25-5.01v-6.04c-1.31,.02-2.53,.34-3.65,.9Z"/><path class="cls-1" d="M111.75,12.94c-2.63-3.51-8.88-3.87-11.36,.12h-.08c-.08-.47-.33-1.9-.41-2.35h-5.8V30.41h6.59v-10.72c-.05-1.82,1.42-3.64,3.27-3.61,1.87-.04,3.29,1.73,3.25,3.57,0,0,0,10.76,0,10.76h6.59v-10.72c-.03-1.77,1.43-3.66,3.26-3.61,1.88,0,3.31,1.7,3.26,3.57v10.76h6.7v-11.06c0-1.05-.14-2.1-.49-3.1-2.08-5.97-9.73-8.64-14.79-3.31Z"/></g></g><g><path class="cls-2" d="M5.66,4.93C3.04,7.22,1.11,10.34,.35,14.01c-1.86,8.94,3.87,17.69,12.81,19.55,5.04,1.05,10.03-.32,13.75-3.32-.33-.06-.67-.12-1-.19C13.82,27.54,5.54,16.83,5.66,4.93Z"/><path class="cls-3" d="M19.9,1.2C14.63,.11,9.43,1.65,5.66,4.93c-.12,11.9,8.16,22.61,20.24,25.13,.33,.07,.67,.13,1,.19,2.87-2.31,4.99-5.6,5.8-9.49,1.86-8.94-3.87-17.69-12.81-19.55Z"/><circle class="cls-1" cx="33.06" cy="2.48" r="2.48"/><circle class="cls-1" cx="8.2" cy="31.7" r="3.3"/></g></g></g></svg>