<svg xmlns="http://www.w3.org/2000/svg" width="27.778" height="25" viewBox="0 0 27.778 25">
  <g id="Grupo_20" data-name="Grupo 20" transform="translate(-2 -3)">
    <path id="Trazado_272" data-name="Trazado 272" d="M26.826,3H4.951A2.871,2.871,0,0,0,2,5.778V25.222A2.871,2.871,0,0,0,4.951,28H26.826a2.871,2.871,0,0,0,2.951-2.778V5.778A2.871,2.871,0,0,0,26.826,3Zm0,22.222H4.951a1,1,0,0,1-.157-.022c-.01,0-.015,0-.017.011L4.761,5.842a.255.255,0,0,1,.19-.064H26.826c.11,0,.169.039.174.011l.017,19.369A.255.255,0,0,1,26.826,25.222Z" transform="translate(0)" fill="#243a85"/>
    <path id="Trazado_273" data-name="Trazado 273" d="M6,7h8.333v8.333H6Zm9.722,11.111H6v2.778H22.667V18.111H15.722Zm1.389-5.556h5.556v2.778H17.111Zm0-5.556h5.556V9.778H17.111Z" transform="translate(1.556 1.556)" fill="#243a85"/>
  </g>
</svg>
